<?xml version="1.0" encoding="utf-8"?>
<!-- Generator: Adobe Illustrator 16.0.0, SVG Export Plug-In . SVG Version: 6.00 Build 0)  -->
<!DOCTYPE svg PUBLIC "-//W3C//DTD SVG 1.1//EN" "http://www.w3.org/Graphics/SVG/1.1/DTD/svg11.dtd">
<svg version="1.1" id="レイヤー_1" xmlns="http://www.w3.org/2000/svg" xmlns:xlink="http://www.w3.org/1999/xlink" x="0px"
	 y="0px" width="130px" height="92px" viewBox="0 0 130 92" enable-background="new 0 0 130 92" xml:space="preserve">
<path opacity="0.15" fill="#040000" d="M97.679,24.22l0.092,1.143l-4.369-0.497l-13.776-3.159l-0.015,0.064l-11.174-2.54
	c-1.789-0.406-3.668-0.369-5.438,0.108l-12.268,3.305c-1.354,0.364-2.475,1.161-3.255,2.202H36.779l0.055-0.69H17.389v43.803H33.33
	l0.26-3.253l34.562,12.138c0.863,0.315,1.749,0.475,2.631,0.475c3.034,0,5.718-1.928,6.243-4.485
	c0.066-0.326,0.096-0.674,0.077-1.031c1.999,0.091,3.723-0.534,4.936-1.723l18.872-5.468l0.272,3.41h15.941V24.22H97.679z"/>
<g>
	<polyline fill="#FFFFFF" points="65.048,32.956 65.048,70.861 99.062,61.006 111.178,61.081 112.119,26.731 91.148,24.347 
		77.29,21.169 	"/>
	<polygon fill="#434242" points="63.548,72.857 63.548,32.956 66.549,32.956 66.549,68.865 98.854,59.505 109.719,59.572 
		110.582,28.066 90.813,25.809 76.955,22.631 77.625,19.707 91.401,22.866 113.656,25.396 112.637,62.59 99.271,62.507 	"/>
</g>
<g>
	<path fill="#FFFFFF" d="M17.705,24.347h34.274l33.596,18.661c2.93,1.587,7.53,5.271,5.271,8.283c-1.63,2.172-4.52,2.26-8.284,0.753
		l-15.016-7.359l12.003,6.606c6.777,3.013,6.777,6.777,5.071,8.961c-2.059,2.335-5.04,0.914-6.577,0.076l-13.008-6.604l13.149,6.899
		c1.452,0.791,3.453,2.597,1.364,5.729c-1.506,2.259-4.518,2.259-6.777,1.506l-11-5.848l9.495,5.095
		c5.271,2.259,0.753,8.283-4.599,6.329L29.129,60.252l-11.332,1.582L17.705,24.347z"/>
	<path fill="#434242" d="M68.783,75.318c-0.882,0-1.768-0.159-2.631-0.475L28.976,61.788l-10.971,1.531
		c-0.431,0.062-0.864-0.069-1.191-0.353c-0.327-0.284-0.516-0.695-0.517-1.129l-0.093-37.487c-0.001-0.398,0.157-0.781,0.438-1.063
		c0.281-0.282,0.664-0.44,1.062-0.44h34.274c0.255,0,0.505,0.065,0.729,0.188l33.596,18.661c0.941,0.51,5.75,3.275,6.537,6.875
		c0.284,1.297,0.01,2.549-0.794,3.62c-1.317,1.754-3.336,2.573-5.887,2.333c0.345,0.563,0.593,1.15,0.744,1.759
		c0.425,1.702,0.034,3.439-1.102,4.893c-1.07,1.218-2.405,1.835-3.92,1.853c0.237,1.322-0.127,2.719-1.085,4.156
		c-1.183,1.774-3.231,2.723-5.693,2.617c0.019,0.357-0.011,0.705-0.077,1.031C74.501,73.391,71.817,75.318,68.783,75.318z
		 M29.129,58.752c0.169,0,0.337,0.028,0.497,0.085L67.164,72.02c0.55,0.2,1.089,0.299,1.619,0.299c1.72,0,3.097-1.079,3.304-2.088
		c0.179-0.867-0.67-1.428-1.412-1.746c-0.04-0.018-0.08-0.036-0.118-0.058l-9.495-5.095c-0.729-0.391-1.003-1.298-0.614-2.028
		c0.39-0.729,1.295-1.006,2.027-0.617l10.884,5.786c0.698,0.22,1.416,0.336,2.085,0.336c1.325,0,2.286-0.434,2.856-1.288
		c0.54-0.811,0.745-1.502,0.608-2.056c-0.184-0.743-0.982-1.274-1.442-1.524l-13.128-6.889c-0.73-0.383-1.014-1.283-0.636-2.017
		c0.379-0.731,1.278-1.021,2.012-0.649l13.007,6.604c0.55,0.299,1.906,1.039,3.093,1.039c0.684,0,1.218-0.245,1.681-0.77
		c0.335-0.433,0.749-1.242,0.498-2.25c-0.381-1.524-2.176-3.068-5.054-4.348c-0.039-0.018-0.077-0.036-0.114-0.057l-12.003-6.607
		c-0.713-0.393-0.983-1.283-0.607-2.006c0.375-0.723,1.26-1.016,1.991-0.655l14.964,7.334c1.493,0.593,2.785,0.894,3.841,0.894
		c1.196,0,2.034-0.374,2.635-1.175c0.279-0.372,0.361-0.735,0.264-1.179c-0.351-1.602-2.806-3.669-5.05-4.885l-33.27-18.48H19.208
		l0.085,34.264l9.628-1.344C28.991,58.757,29.06,58.752,29.129,58.752z"/>
</g>
<g>
	<polygon fill="#FFFFFF" points="113.625,64.521 100.568,64.521 97.304,23.72 113.625,23.72 	"/>
	<path fill="#434242" d="M115.125,66.021H99.184L95.679,22.22h19.446V66.021z M101.953,63.021h10.172V25.22H98.929L101.953,63.021z"
		/>
</g>
<g>
	<polygon fill="#FFFFFF" points="29.945,64.459 16.889,64.459 16.889,23.656 33.209,23.656 	"/>
	<path fill="#434242" d="M31.33,65.959H15.389V22.156h19.446L31.33,65.959z M18.389,62.959h10.172l3.024-37.803H18.389V62.959z"/>
</g>
<g>
	<path fill="#FFFFFF" d="M80.303,21.922l-14.199-3.228c-1.555-0.354-3.174-0.321-4.715,0.094l-12.268,3.305
		c-2.333,0.628-3.759,2.981-3.236,5.341l0,0c0.703,3.169,3.881,5.135,7.031,4.347l5.535-1.383c2.427-0.607,4.994-0.262,7.174,0.965
		l9.408,5.62"/>
	<path fill="#434242" d="M74.262,38.27l-9.407-5.62c-1.82-1.023-3.978-1.312-6.041-0.797l-5.535,1.383
		c-1.92,0.479-3.903,0.171-5.584-0.868c-1.683-1.04-2.846-2.677-3.274-4.609c-0.698-3.151,1.195-6.275,4.311-7.114l12.268-3.305
		c1.769-0.478,3.65-0.514,5.437-0.108l14.199,3.228l-0.664,2.926l-14.2-3.228c-1.312-0.3-2.692-0.271-3.992,0.079l-12.268,3.305
		c-1.562,0.421-2.512,1.988-2.162,3.568c0.252,1.134,0.935,2.096,1.923,2.707c0.988,0.61,2.152,0.792,3.279,0.51l5.535-1.383
		c2.809-0.704,5.748-0.309,8.273,1.113l9.441,5.64L74.262,38.27z"/>
</g>
</svg>
